<?xml version="1.0" encoding="utf-8"?>
<!-- Generator: Adobe Illustrator 22.1.0, SVG Export Plug-In . SVG Version: 6.00 Build 0)  -->
<svg version="1.1" id="Uk_x5F_Downloads" xmlns="http://www.w3.org/2000/svg" xmlns:xlink="http://www.w3.org/1999/xlink" x="0px"
	 y="0px" viewBox="0 0 1630 1713" style="enable-background:new 0 0 1630 1713;" xml:space="preserve">
<style type="text/css">
	.path{fill:none;stroke:#29ABE2;stroke-width:2;stroke-miterlimit:10;}
	.label_bg{fill:#ED1C24;}
	.label_text{fill:#FFFF00;}
	.label_info{fill:#39B54A;}
	.label_bg_x0020_4{fill:#ED1C24;}
	.label_bg_x0020_5{fill:#ED1C24;}
	.label_bg_x0020_6{fill:#ED1C24;}
	.st0{opacity:0.4;}
	.st1{opacity:0.3;fill:#0AE88D;}
	.st2{opacity:0.25;fill:#E6E6E6;}
	.st3{fill:#FB3D79;}
	.st4{fill:#FFFFFF;}
	.st5{font-family:'Roboto-Medium';}
	.st6{font-size:32.0081px;}
	.st7{letter-spacing:1;}
	.st8{font-family:'Roboto-Light';}
	.st9{fill:none;stroke:#8CC63F;stroke-width:2;stroke-miterlimit:10;}
	.st10{fill:none;stroke:#8CC63F;stroke-width:2;stroke-miterlimit:10;stroke-dasharray:10.2,10.2;}
	.st11{fill:none;stroke:#8CC63F;stroke-width:2;stroke-miterlimit:10;stroke-dasharray:11.8462,11.8462;}
	.st12{fill:none;stroke:#8CC63F;stroke-width:2;stroke-miterlimit:10;stroke-dasharray:15.3518,15.3518;}
	.st13{fill:#8CC63F;}
	.st14{font-family:'Roboto-Regular';}
	.st15{font-size:25.1316px;}
	.st16{fill:#29ABE2;}
	.st17{font-size:21.9869px;}
	.st18{fill:#F4F4F4;}
	.st19{fill:none;stroke:#8CC63F;stroke-width:2;stroke-miterlimit:10;stroke-dasharray:11,11;}
	.st20{fill:none;stroke:#8CC63F;stroke-width:2;stroke-miterlimit:10;stroke-dasharray:11.4704,11.4704;}
	.st21{fill:none;stroke:#29ABE2;stroke-width:1.9711;stroke-miterlimit:10;}
	.st22{fill:#63CAFF;}
	.st23{fill:none;stroke:#29ABE2;stroke-width:1.9911;stroke-miterlimit:10;}
	.st24{fill:#E8E8E8;}
	.st25{fill:none;stroke:#FFFFFF;stroke-width:5.3996;stroke-miterlimit:10;}
	.st26{font-size:28.1028px;}
	.st27{font-size:43px;}
	.st28{letter-spacing:2;}
</style>
<g id="hidden">
	<g class="st0">
		<g>
			<rect x="49" y="443.4" class="st1" width="298" height="117.4"/>
			<rect x="358" y="443.4" class="st1" width="298" height="117.4"/>
			<rect x="667" y="443.4" class="st1" width="298" height="117.4"/>
			<rect x="976" y="443.4" class="st1" width="298" height="117.4"/>
			<rect x="1285" y="443.4" class="st1" width="298" height="117.4"/>
		</g>
		<g>
			<rect x="49" y="571.4" class="st1" width="298" height="117.4"/>
			<rect x="358" y="571.4" class="st1" width="298" height="117.4"/>
			<rect x="667" y="571.4" class="st1" width="298" height="117.4"/>
			<rect x="976" y="571.4" class="st1" width="298" height="117.4"/>
			<rect x="1285" y="571.4" class="st1" width="298" height="117.4"/>
		</g>
		<g>
			<rect x="49" y="699.4" class="st1" width="298" height="117.4"/>
			<rect x="358" y="699.4" class="st1" width="298" height="117.4"/>
			<rect x="667" y="699.4" class="st1" width="298" height="117.4"/>
			<rect x="976" y="699.4" class="st1" width="298" height="117.4"/>
			<rect x="1285" y="699.4" class="st1" width="298" height="117.4"/>
		</g>
		<g>
			<rect x="49" y="827.4" class="st1" width="298" height="117.4"/>
			<rect x="358" y="827.4" class="st1" width="298" height="117.4"/>
			<rect x="667" y="827.4" class="st1" width="298" height="117.4"/>
			<rect x="976" y="827.4" class="st1" width="298" height="117.4"/>
			<rect x="1285" y="827.4" class="st1" width="298" height="117.4"/>
		</g>
		<g>
			<rect x="49" y="955.4" class="st1" width="298" height="117.4"/>
			<rect x="358" y="955.4" class="st1" width="298" height="117.4"/>
			<rect x="667" y="955.4" class="st1" width="298" height="117.4"/>
			<rect x="976" y="955.4" class="st1" width="298" height="117.4"/>
			<rect x="1285" y="955.4" class="st1" width="298" height="117.4"/>
		</g>
		<g>
			<rect x="49" y="1083.4" class="st1" width="298" height="117.4"/>
			<rect x="358" y="1083.4" class="st1" width="298" height="117.4"/>
			<rect x="667" y="1083.4" class="st1" width="298" height="117.4"/>
			<rect x="976" y="1083.4" class="st1" width="298" height="117.4"/>
			<rect x="1285" y="1083.4" class="st1" width="298" height="117.4"/>
		</g>
		<g>
			<rect x="49" y="1211.4" class="st1" width="298" height="117.4"/>
			<rect x="358" y="1211.4" class="st1" width="298" height="117.4"/>
			<rect x="667" y="1211.4" class="st1" width="298" height="117.4"/>
			<rect x="976" y="1211.4" class="st1" width="298" height="117.4"/>
			<rect x="1285" y="1211.4" class="st1" width="298" height="117.4"/>
		</g>
		<g>
			<rect x="49" y="1339.4" class="st1" width="298" height="117.4"/>
			<rect x="358" y="1339.4" class="st1" width="298" height="117.4"/>
			<rect x="667" y="1339.4" class="st1" width="298" height="117.4"/>
			<rect x="976" y="1339.4" class="st1" width="298" height="117.4"/>
			<rect x="1285" y="1339.4" class="st1" width="298" height="117.4"/>
		</g>
		<g>
			<rect x="49" y="1467.4" class="st1" width="298" height="117.4"/>
			<rect x="358" y="1467.4" class="st1" width="298" height="117.4"/>
			<rect x="667" y="1467.4" class="st1" width="298" height="117.4"/>
			<rect x="976" y="1467.4" class="st1" width="298" height="117.4"/>
			<rect x="1285" y="1467.4" class="st1" width="298" height="117.4"/>
		</g>
	</g>
	<rect x="-144" y="-83" class="st2" width="960" height="2421"/>
</g>
<g id="tier6">
	<g id="node_6_">
		<rect id="shape_15_" x="667" y="1467.4" class="st3" width="298" height="117.6"/>
		<text transform="matrix(1 0 0 1 702.1045 1520.3818)"><tspan x="0" y="0" class="st4 st5 st6 st7">IMOGEN HEAP</tspan><tspan x="59" y="38.4" class="st4 st8 st6 st7">18.92%</tspan></text>
	</g>
	<g id="path_10_">
		<g id="line_x5F_dashed_1_">
			<g>
				<line class="st9" x1="880" y1="1467" x2="880" y2="1461"/>
				<line class="st10" x1="880" y1="1450.8" x2="880" y2="1415.1"/>
				<polyline class="st9" points="880,1410 880,1404 886,1404 				"/>
				<line class="st11" x1="897.8" y1="1403.9" x2="1342.1" y2="1402.1"/>
				<polyline class="st9" points="1348,1402 1354,1402 1354,1396 				"/>
				<line class="st12" x1="1354" y1="1380.6" x2="1354" y2="1357.6"/>
				<line class="st9" x1="1354" y1="1349.9" x2="1354" y2="1343.9"/>
				<g>
					<polygon class="st13" points="1363.9,1329 1353.9,1345.7 1344,1329 					"/>
				</g>
			</g>
		</g>
		<g id="label_9_">
			<path id="shape_14_" class="label_bg" d="M1383,1424c11.6,0,21-9.4,21-21l0,0c0-11.6-9.4-21-21-21h-60c-11.6,0-21,9.4-21,21l0,0
				c0,11.6,9.4,21,21,21H1383z"/>
			<g>
				<text transform="matrix(1 0 0 1 1317.2554 1411.499)" class="label_text st14 st15 st7">0.43%</text>
			</g>
		</g>
	</g>
	<g id="path_9_">
		<g id="line_7_">
			<g>
				<polyline class="path" points="1057,1087.9 1057,1272 816,1272 816,1467 				"/>
				<g>
					<polygon class="st16" points="1047.1,1073 1057.1,1089.7 1067,1073 					"/>
				</g>
			</g>
		</g>
		<g id="label_8_">
			<path id="shape_13_" class="label_bg" d="M1087,1293h-60c-11.5,0-21-9.4-21-21l0,0c0-11.6,9.5-21,21-21h60c11.6,0,21,9.4,21,21
				l0,0C1108,1283.6,1098.6,1293,1087,1293z"/>
			<g>
				<text transform="matrix(1 0 0 1 1021.2554 1280.499)" class="label_text st14 st15 st7">0.85%</text>
			</g>
		</g>
	</g>
	<g id="path_8_">
		<g id="line_6_">
			<g>
				<line class="path" x1="1270.1" y1="1521" x2="965" y2="1521"/>
				<g>
					<polygon class="st16" points="1285,1511.1 1268.3,1521.1 1285,1531 					"/>
				</g>
			</g>
		</g>
		<g id="label_7_">
			<path id="shape_12_" class="label_bg" d="M1155,1542h-60c-11.6,0-21-9.4-21-21l0,0c0-11.6,9.4-21,21-21h60c11.6,0,21,9.4,21,21
				l0,0C1176,1532.6,1166.6,1542,1155,1542z"/>
			<g>
				<text transform="matrix(1 0 0 1 1089.2554 1529.499)" class="label_text st14 st15 st7">3.64%</text>
			</g>
		</g>
	</g>
	<g id="path_7_">
		<g id="line_8_">
			<g>
				<line class="path" x1="361.9" y1="1526" x2="667" y2="1526"/>
				<g>
					<polygon class="st16" points="347,1535.9 363.7,1525.9 347,1516 					"/>
				</g>
			</g>
		</g>
		<g id="label_6_">
			<path id="shape_11_" class="label_bg" d="M537,1547h-60c-11.5,0-21-9.4-21-21l0,0c0-11.6,9.4-21,21-21h60c11.5,0,21,9.4,21,21
				l0,0C558,1537.6,548.5,1547,537,1547z"/>
			<g>
				<text transform="matrix(1 0 0 1 482.8755 1534.499)" class="label_text st14 st15 st7">14%</text>
			</g>
		</g>
	</g>
</g>
<g id="tier5_1_">
	<g id="node_9_">
		<rect id="shape_22_" x="49" y="1467.4" class="st4" width="298" height="117.6"/>
		<text transform="matrix(1 0 0 1 87.4912 1520.3818)"><tspan x="0" y="0" class="st5 st6 st7">MEGAPHONIC</tspan><tspan x="89.3" y="38.4" class="st8 st6 st7">0%</tspan></text>
	</g>
	<g id="path_13_">
		<g id="line_12_">
			<g>
				<line class="path" x1="198" y1="831.9" x2="198" y2="1467"/>
				<g>
					<polygon class="st16" points="188.1,817 198.1,833.7 208,817 					"/>
				</g>
			</g>
		</g>
		<g id="label_12_">
			<path id="shape_9_" class="label_bg_x0020_6" d="M238,1163h-79c-11.5,0-21-9.4-21-21l0,0c0-11.6,9.4-21,21-21h79
				c11.5,0,21,9.4,21,21l0,0C259,1153.6,249.6,1163,238,1163z"/>
			<g id="info_3_">
				<circle class="st4" cx="238" cy="1142" r="14"/>
				<g>
					<text transform="matrix(1 0 0 1 235.5771 1150.1191)" class="label_info st5 st17">i</text>
				</g>
			</g>
			<g>
				<g>
					<text transform="matrix(1 0 0 1 159.8755 1150.499)" class="label_text st14 st15 st7">14%</text>
				</g>
			</g>
		</g>
	</g>
	<g id="node_8_">
		<rect id="shape_20_" x="1285" y="1467.4" class="st18" width="298" height="117.6"/>
		<text transform="matrix(1 0 0 1 1367.1406 1520.3818)"><tspan x="0" y="0" class="st5 st6 st7">IMAGEM</tspan><tspan x="21.7" y="38.4" class="st8 st6 st7">1.22%</tspan></text>
	</g>
	<g id="path_4_">
		<g id="line_3_">
			<g>
				<line class="path" x1="1505" y1="1343.9" x2="1505" y2="1467"/>
				<g>
					<polygon class="st16" points="1495.1,1329 1505.1,1345.7 1515,1329 					"/>
				</g>
			</g>
		</g>
		<g id="label_10_">
			<path id="shape_19_" class="label_bg_x0020_4" d="M1535,1424h-60c-11.6,0-21-9.4-21-21l0,0c0-11.6,9.4-21,21-21h60
				c11.6,0,21,9.4,21,21l0,0C1556,1414.6,1546.6,1424,1535,1424z"/>
			<g>
				<text transform="matrix(1 0 0 1 1469.2554 1411.499)" class="label_text st14 st15 st7">4.86%</text>
			</g>
		</g>
	</g>
</g>
<g id="tier4_1_">
	<g id="node_5_">
		<rect id="shape_10_" x="1285" y="1211.4" class="st18" width="298" height="117.6"/>
		<text transform="matrix(1 0 0 1 1384.6084 1264.3818)"><tspan x="0" y="0" class="st5 st6 st7">IMPEL</tspan><tspan x="4.2" y="38.4" class="st8 st6 st7">0.96%</tspan></text>
	</g>
	<g id="path_6_">
		<g id="line_x5F_dashed">
			<g>
				<line class="st9" x1="1285" y1="1272" x2="1279" y2="1272"/>
				<line class="st19" x1="1268" y1="1272" x2="1207.5" y2="1272"/>
				<polyline class="st9" points="1202,1272 1196,1272 1196,1266 				"/>
				<line class="st20" x1="1196" y1="1254.5" x2="1196" y2="1099.7"/>
				<line class="st9" x1="1196" y1="1093.9" x2="1196" y2="1087.9"/>
				<g>
					<polygon class="st13" points="1205.9,1073 1195.9,1089.7 1186,1073 					"/>
				</g>
			</g>
		</g>
		<g id="label_5_">
			<path id="shape_5_" class="label_bg" d="M1235,1293h-79c-11.6,0-21-9.4-21-21l0,0c0-11.6,9.4-21,21-21h79c11.6,0,21,9.4,21,21
				l0,0C1256,1283.6,1246.6,1293,1235,1293z"/>
			<g id="info_2_">
				<circle class="st4" cx="1235" cy="1272" r="14"/>
				<g>
					<text transform="matrix(1 0 0 1 1232.5771 1280.1191)" class="label_info st5 st17">i</text>
				</g>
			</g>
			<g>
				<g>
					<text transform="matrix(1 0 0 1 1145.2554 1280.499)" class="label_text st14 st15 st7">0.85%</text>
				</g>
			</g>
		</g>
	</g>
	<g id="path_5_">
		<g id="line_4_">
			<g>
				<line class="path" x1="1434" y1="831.9" x2="1434" y2="1211"/>
				<g>
					<polygon class="st16" points="1424.1,817 1434.1,833.7 1444,817 					"/>
				</g>
			</g>
		</g>
		<g id="label_4_">
			<path id="shape_4_" class="label_bg" d="M1464,1035h-60c-11.6,0-21-9.4-21-21l0,0c0-11.5,9.4-21,21-21h60c11.6,0,21,9.5,21,21
				l0,0C1485,1025.6,1475.6,1035,1464,1035z"/>
			<g>
				<text transform="matrix(1 0 0 1 1405.9399 1022.499)" class="label_text st14 st15 st7">5.4%</text>
			</g>
		</g>
	</g>
</g>
<g id="tier3_1_">
	<g id="node_7_">
		<rect id="shape_24_" x="976" y="955.4" class="st18" width="298" height="117.6"/>
		<text transform="matrix(1 0 0 1 1093.7988 1008.3818)"><tspan x="0" y="0" class="st5 st6 st7">PRS</tspan><tspan x="-4.3" y="38.4" class="st8 st6 st7">0.1%</tspan></text>
	</g>
	<g id="path_15_">
		<g id="line_15_">
			<g>
				<line class="st21" x1="1125" y1="836.7" x2="1125" y2="955"/>
				<g>
					<polygon class="st16" points="1115.2,822 1125.1,838.5 1134.9,822 					"/>
				</g>
			</g>
		</g>
		<g id="label_3_">
			<path id="shape_7_" class="label_bg_x0020_5" d="M1155,907h-60c-11.6,0-21-9.5-21-21l0,0c0-11.5,9.4-21,21-21h60
				c11.6,0,21,9.5,21,21l0,0C1176,897.5,1166.6,907,1155,907z"/>
			<g>
				<text transform="matrix(1 0 0 1 1096.9399 894.499)" class="label_text st14 st15 st7">1.8%</text>
			</g>
		</g>
	</g>
</g>
<g id="tier2">
	<g id="node_3_">
		<rect id="shape_8_" x="1285" y="699.4" class="st18" width="298" height="117.6"/>
		<text transform="matrix(1 0 0 1 1387.5264 752.3818)"><tspan x="0" y="0" class="st5 st6 st7">MCPS</tspan><tspan x="11" y="38.4" class="st8 st6 st7">0.6%</tspan></text>
	</g>
	<g id="node_2_">
		<rect id="shape_3_" x="976" y="699.4" class="st18" width="298" height="117.6"/>
		<text transform="matrix(1 0 0 1 998.0322 752.3818)"><tspan x="0" y="0" class="st5 st6 st7">LOCAL SOCIETY</tspan><tspan x="91.5" y="38.4" class="st8 st6 st7">0.2%</tspan></text>
	</g>
	<g id="path_2_">
		<g id="line_2_">
			<g>
				<polyline class="st21" points="979.7,530 1125,530 1125,699 				"/>
				<g>
					<polygon class="st16" points="965,539.8 981.5,529.9 965,520.1 					"/>
				</g>
			</g>
		</g>
		<g id="label_2_">
			<path id="shape_2_" class="label_bg" d="M1164,551h-79c-11.6,0-21-9.5-21-21l0,0c0-11.5,9.4-21,21-21h79c11.6,0,21,9.5,21,21l0,0
				C1185,541.5,1175.6,551,1164,551z"/>
			<g id="info_1_">
				<circle class="st4" cx="1164" cy="530" r="14"/>
				<g>
					<text transform="matrix(1 0 0 1 1161.5771 538.1191)" class="st22 st5 st17">i</text>
					<text transform="matrix(1 0 0 1 1161.5771 538.1191)" class="label_info st5 st17">i</text>
				</g>
			</g>
			<g>
				<text transform="matrix(1 0 0 1 1098.5596 538.499)" class="label_text st14 st15 st7">2%</text>
			</g>
		</g>
	</g>
	<g id="path_1_">
		<g id="line_1_">
			<g>
				<polyline class="st23" points="979.9,477 1434,477 1434,699 				"/>
				<g>
					<polygon class="st16" points="965,486.9 981.7,476.9 965,467 					"/>
				</g>
			</g>
		</g>
		<g id="label_1_">
			<g>
				<path id="shape" class="label_bg" d="M1473,498h-79c-11.6,0-21-9.4-21-21v0c0-11.5,9.4-21,21-21h79c11.6,0,21,9.4,21,21v0
					C1494,488.6,1484.6,498,1473,498z"/>
			</g>
			<g id="info">
				<circle class="st4" cx="1473" cy="477" r="14"/>
				<g>
					<text transform="matrix(1 0 0 1 1470.5771 485.1191)" class="label_info st5 st17">i</text>
				</g>
			</g>
			<g>
				<text transform="matrix(1 0 0 1 1407.5596 485.499)" class="label_text st14 st15 st7">6%</text>
			</g>
		</g>
	</g>
	<g id="path">
		<g id="line">
			<g>
				<polyline class="path" points="652.1,500 198,500 198,730.4 				"/>
				<g>
					<polygon class="st16" points="667,490.1 650.3,500.1 667,510 					"/>
				</g>
			</g>
		</g>
		<g id="label">
			<path id="shape_1_" class="label_bg" d="M228,524h-60c-11.5,0-21-9.5-21-21v0c0-11.5,9.4-21,21-21h60c11.5,0,21,9.4,21,21v0
				C249,514.5,239.6,524,228,524z"/>
			<g>
				<text transform="matrix(1 0 0 1 173.8755 511.499)" class="label_text st14 st15 st7">62%</text>
			</g>
		</g>
	</g>
	<g id="node_1_">
		<rect id="shape_16_" x="49" y="699.4" class="st4" width="298" height="117.6"/>
		<text transform="matrix(1 0 0 1 165.5879 752.3818)"><tspan x="0" y="0" class="st5 st6 st7">RCA</tspan><tspan x="1.5" y="38.4" class="st8 st6 st7">48%</tspan></text>
	</g>
</g>
<g id="tier1">
	<g id="node">
		<rect id="shape_6_" x="667" y="444.4" class="st24" width="298" height="117.6"/>
		<text transform="matrix(1 0 0 1 784.3301 497.3818)"><tspan x="0" y="0" class="st5 st6 st7">DSP</tspan><tspan x="0.8" y="38.4" class="st8 st6 st7">30%</tspan></text>
	</g>
	<g id="path_11_">
		<g id="line_5_">
			<g>
				<line class="path" x1="816" y1="320.9" x2="816" y2="446"/>
				<g>
					<polygon class="st16" points="806.1,306 816.1,322.7 826,306 					"/>
				</g>
			</g>
		</g>
	</g>
</g>
<g id="start">
	<g>
		<circle cx="816.1" cy="288.9" r="61.8"/>
		<g>
			<polyline class="st25" points="843.3,295.9 843.3,311.9 789,311.9 789,295.9 			"/>
			<line class="st25" x1="816.1" y1="257.6" x2="816.1" y2="299.8"/>
			<polyline class="st25" points="833.5,282.6 816.1,299.9 798.8,282.6 			"/>
		</g>
	</g>
</g>
<g id="title">
	<text transform="matrix(1 0 0 1 343.4556 299.4863)" class="st8 st26 st7">Recording</text>
	<text transform="matrix(1 0 0 1 1120.4526 299.8926)" class="st8 st26 st7">Publishing</text>
	<text transform="matrix(1 0 0 1 547.3687 94.8496)" class="st5 st27 st28">CAN &amp; MEX Downloads</text>
</g>
</svg>
