<?xml version="1.0" encoding="utf-8"?>
<!-- Generator: Adobe Illustrator 22.1.0, SVG Export Plug-In . SVG Version: 6.00 Build 0)  -->
<svg version="1.1" id="Uk_x5F_Downloads" xmlns="http://www.w3.org/2000/svg" xmlns:xlink="http://www.w3.org/1999/xlink" x="0px"
	 y="0px" viewBox="0 0 1630 1439" style="enable-background:new 0 0 1630 1439;" xml:space="preserve">
<style type="text/css">
	.path{fill:none;stroke:#29ABE2;stroke-width:2;stroke-miterlimit:10;}
	.label_bg{fill:#ED1C24;}
	.label_text{fill:#FFFF00;}
	.label_info{fill:#39B54A;}
	.label_bg_x0020_4{fill:#ED1C24;}
	.label_bg_x0020_6{fill:#ED1C24;}
	.label_bg_x0020_7{fill:#ED1C24;}
	.label_bg_x0020_8{fill:#ED1C24;}
	.st0{opacity:0.4;}
	.st1{opacity:0.3;fill:#0AE88D;}
	.st2{opacity:0.25;fill:#E6E6E6;}
	.st3{fill:#FB3D79;}
	.st4{fill:#FFFFFF;}
	.st5{font-family:'Roboto-Medium';}
	.st6{font-size:32.0081px;}
	.st7{letter-spacing:1;}
	.st8{font-family:'Roboto-Light';}
	.st9{fill:#29ABE2;}
	.st10{font-family:'Roboto-Regular';}
	.st11{font-size:25.1316px;}
	.st12{font-size:21.9869px;}
	.st13{fill:#F4F4F4;}
	.st14{fill:#E8E8E8;}
	.st15{fill:none;stroke:#FFFFFF;stroke-width:5.3996;stroke-miterlimit:10;}
	.st16{font-size:28.1028px;}
	.st17{font-size:43px;}
	.st18{letter-spacing:2;}
</style>
<g id="hidden">
	<g class="st0">
		<g>
			<rect x="49" y="443.4" class="st1" width="298" height="117.4"/>
			<rect x="358" y="443.4" class="st1" width="298" height="117.4"/>
			<rect x="667" y="443.4" class="st1" width="298" height="117.4"/>
			<rect x="976" y="443.4" class="st1" width="298" height="117.4"/>
			<rect x="1285" y="443.4" class="st1" width="298" height="117.4"/>
		</g>
		<g>
			<rect x="49" y="571.4" class="st1" width="298" height="117.4"/>
			<rect x="358" y="571.4" class="st1" width="298" height="117.4"/>
			<rect x="667" y="571.4" class="st1" width="298" height="117.4"/>
			<rect x="976" y="571.4" class="st1" width="298" height="117.4"/>
			<rect x="1285" y="571.4" class="st1" width="298" height="117.4"/>
		</g>
		<g>
			<rect x="49" y="699.4" class="st1" width="298" height="117.4"/>
			<rect x="358" y="699.4" class="st1" width="298" height="117.4"/>
			<rect x="667" y="699.4" class="st1" width="298" height="117.4"/>
			<rect x="976" y="699.4" class="st1" width="298" height="117.4"/>
			<rect x="1285" y="699.4" class="st1" width="298" height="117.4"/>
		</g>
		<g>
			<rect x="49" y="827.4" class="st1" width="298" height="117.4"/>
			<rect x="358" y="827.4" class="st1" width="298" height="117.4"/>
			<rect x="667" y="827.4" class="st1" width="298" height="117.4"/>
			<rect x="976" y="827.4" class="st1" width="298" height="117.4"/>
			<rect x="1285" y="827.4" class="st1" width="298" height="117.4"/>
		</g>
		<g>
			<rect x="49" y="955.4" class="st1" width="298" height="117.4"/>
			<rect x="358" y="955.4" class="st1" width="298" height="117.4"/>
			<rect x="667" y="955.4" class="st1" width="298" height="117.4"/>
			<rect x="976" y="955.4" class="st1" width="298" height="117.4"/>
			<rect x="1285" y="955.4" class="st1" width="298" height="117.4"/>
		</g>
		<g>
			<rect x="49" y="1083.4" class="st1" width="298" height="117.4"/>
			<rect x="358" y="1083.4" class="st1" width="298" height="117.4"/>
			<rect x="667" y="1083.4" class="st1" width="298" height="117.4"/>
			<rect x="976" y="1083.4" class="st1" width="298" height="117.4"/>
			<rect x="1285" y="1083.4" class="st1" width="298" height="117.4"/>
		</g>
		<g>
			<rect x="49" y="1211.4" class="st1" width="298" height="117.4"/>
			<rect x="358" y="1211.4" class="st1" width="298" height="117.4"/>
			<rect x="667" y="1211.4" class="st1" width="298" height="117.4"/>
			<rect x="976" y="1211.4" class="st1" width="298" height="117.4"/>
			<rect x="1285" y="1211.4" class="st1" width="298" height="117.4"/>
		</g>
		<g>
			<rect x="49" y="1339.4" class="st1" width="298" height="117.4"/>
			<rect x="358" y="1339.4" class="st1" width="298" height="117.4"/>
			<rect x="667" y="1339.4" class="st1" width="298" height="117.4"/>
			<rect x="976" y="1339.4" class="st1" width="298" height="117.4"/>
			<rect x="1285" y="1339.4" class="st1" width="298" height="117.4"/>
		</g>
	</g>
	<rect x="-144" y="-83" class="st2" width="960" height="2421"/>
</g>
<g id="tier6">
	<g id="node_6_">
		<rect id="shape_15_" x="666" y="1211.4" class="st3" width="298" height="117.6"/>
		<text transform="matrix(1 0 0 1 701.1045 1264.3818)"><tspan x="0" y="0" class="st4 st5 st6 st7">IMOGEN HEAP</tspan><tspan x="83" y="38.4" class="st4 st8 st6 st7">20%</tspan></text>
	</g>
	<g id="path_8_">
		<g id="line_6_">
			<g>
				<line class="path" x1="1269.1" y1="1273" x2="964" y2="1273"/>
				<g>
					<polygon class="st9" points="1284,1263.1 1267.3,1273.1 1284,1283 					"/>
				</g>
			</g>
		</g>
		<g id="label_11_">
			<path id="shape_18_" class="label_bg_x0020_8" d="M1154,1291h-60c-11.6,0-21-9.4-21-21l0,0c0-11.6,9.4-21,21-21h60
				c11.6,0,21,9.4,21,21l0,0C1175,1281.6,1165.6,1291,1154,1291z"/>
			<g>
				<text transform="matrix(1 0 0 1 1107.5596 1278.499)" class="label_text st10 st11 st7">6%</text>
			</g>
		</g>
	</g>
	<g id="path_7_">
		<g id="line_8_">
			<g>
				<line class="path" x1="360.9" y1="1273" x2="666" y2="1273"/>
				<g>
					<polygon class="st9" points="346,1282.9 362.7,1272.9 346,1263 					"/>
				</g>
			</g>
		</g>
		<g id="label_6_">
			<path id="shape_11_" class="label_bg" d="M536,1294h-60c-11.5,0-21-9.4-21-21l0,0c0-11.6,9.4-21,21-21h60c11.5,0,21,9.4,21,21
				l0,0C557,1284.6,547.5,1294,536,1294z"/>
			<g>
				<text transform="matrix(1 0 0 1 481.8755 1281.499)" class="label_text st10 st11 st7">14%</text>
			</g>
		</g>
	</g>
</g>
<g id="tier5_1_">
	<g id="node_3_">
		<rect id="shape_5_" x="49" y="1211.4" class="st4" width="298" height="117.6"/>
		<text transform="matrix(1 0 0 1 87.4912 1264.3818)"><tspan x="0" y="0" class="st5 st6 st7">MEGAPHONIC</tspan><tspan x="89.3" y="38.4" class="st8 st6 st7">0%</tspan></text>
	</g>
	<g id="path_3_">
		<g id="line_9_">
			<g>
				<line class="path" x1="198" y1="831.9" x2="198" y2="1211"/>
				<g>
					<polygon class="st9" points="188.1,817 198.1,833.7 208,817 					"/>
				</g>
			</g>
		</g>
		<g id="label_5_">
			<path id="shape_8_" class="label_bg_x0020_7" d="M237,1035h-79c-11.5,0-21-9.4-21-21l0,0c0-11.5,9.4-21,21-21h79
				c11.5,0,21,9.5,21,21l0,0C258,1025.6,248.6,1035,237,1035z"/>
			<g id="info_2_">
				<circle class="st4" cx="237" cy="1014" r="14"/>
				<g>
					<text transform="matrix(1 0 0 1 234.5771 1022.1191)" class="label_info st5 st12">i</text>
				</g>
			</g>
			<g>
				<g>
					<text transform="matrix(1 0 0 1 158.8755 1022.499)" class="label_text st10 st11 st7">14%</text>
				</g>
			</g>
		</g>
	</g>
	<g id="node_2_">
		<rect id="shape_4_" x="1285" y="1211.4" class="st13" width="298" height="117.6"/>
		<text transform="matrix(1 0 0 1 1367.1406 1264.3818)"><tspan x="0" y="0" class="st5 st6 st7">IMAGEM</tspan><tspan x="17" y="38.4" class="st8 st6 st7">2%-X%</tspan></text>
	</g>
	<g id="path_4_">
		<g id="line_3_">
			<g>
				<line class="path" x1="1434" y1="1087.9" x2="1434" y2="1211"/>
				<g>
					<polygon class="st9" points="1424.1,1073 1434.1,1089.7 1444,1073 					"/>
				</g>
			</g>
		</g>
		<g id="label_3_">
			<path id="shape_9_" class="label_bg_x0020_4" d="M1464,1163h-60c-11.6,0-21-9.4-21-21l0,0c0-11.6,9.4-21,21-21h60
				c11.6,0,21,9.4,21,21l0,0C1485,1153.6,1475.6,1163,1464,1163z"/>
			<g>
				<text transform="matrix(1 0 0 1 1417.5596 1150.499)" class="label_text st10 st11 st7">8%</text>
			</g>
		</g>
	</g>
</g>
<g id="tier4_1_">
	<g id="node_4_">
		<rect id="shape_7_" x="1285" y="955.4" class="st13" width="298" height="117.6"/>
		<text transform="matrix(1 0 0 1 1343.2031 1008.3818)"><tspan x="0" y="0" class="st5 st6 st7">UNIVERSAL</tspan><tspan x="68.7" y="38.4" class="st8 st6 st7">X%</tspan></text>
	</g>
	<g id="path_2_">
		<g id="line_2_">
			<g>
				<line class="path" x1="1434" y1="831.9" x2="1434" y2="955"/>
				<g>
					<polygon class="st9" points="1424.1,817 1434.1,833.7 1444,817 					"/>
				</g>
			</g>
		</g>
		<g id="label_2_">
			<path id="shape_3_" class="label_bg_x0020_4" d="M1464,907h-60c-11.6,0-21-9.5-21-21l0,0c0-11.5,9.4-21,21-21h60
				c11.6,0,21,9.5,21,21l0,0C1485,897.5,1475.6,907,1464,907z"/>
			<g>
				<text transform="matrix(1 0 0 1 1417.5596 894.499)" class="label_text st10 st11 st7">8%</text>
			</g>
		</g>
	</g>
</g>
<g id="tier3">
	<g id="path_1_">
		<g id="line_1_">
			<g>
				<line class="path" x1="361.9" y1="758" x2="1285" y2="758"/>
				<g>
					<polygon class="st9" points="347,767.9 363.7,757.9 347,748 					"/>
				</g>
			</g>
		</g>
		<g id="label_1_">
			<path id="shape_2_" class="label_bg_x0020_6" d="M846,779h-60c-11.5,0-21-9.5-21-21l0,0c0-11.5,9.5-21,21-21h60
				c11.5,0,21,9.5,21,21l0,0C867,769.5,857.5,779,846,779z"/>
			<g>
				<text transform="matrix(1 0 0 1 791.8755 766.499)" class="label_text st10 st11 st7">10%</text>
			</g>
		</g>
	</g>
	<g id="node_5_">
		<rect id="shape_10_" x="1285" y="699.4" class="st13" width="298" height="117.6"/>
		<text transform="matrix(1 0 0 1 1397.165 752.3818)"><tspan x="0" y="0" class="st5 st6 st7">CMO</tspan><tspan x="15.6" y="38.4" class="st8 st6 st7">2%</tspan></text>
	</g>
</g>
<g id="tier2">
	<g id="path">
		<g id="line">
			<g>
				<polyline class="path" points="652.1,500 198,500 198,730.4 				"/>
				<g>
					<polygon class="st9" points="667,490.1 650.3,500.1 667,510 					"/>
				</g>
			</g>
		</g>
		<g id="label">
			<path id="shape_1_" class="label_bg" d="M228,524h-60c-11.5,0-21-9.5-21-21v0c0-11.5,9.4-21,21-21h60c11.5,0,21,9.4,21,21v0
				C249,514.5,239.6,524,228,524z"/>
			<g>
				<text transform="matrix(1 0 0 1 166.1909 511.499)" class="label_text st10 st11 st7">100%</text>
			</g>
		</g>
	</g>
	<g id="node_1_">
		<rect id="shape_16_" x="49" y="699.4" class="st4" width="298" height="117.6"/>
		<text transform="matrix(1 0 0 1 165.5879 752.3818)"><tspan x="0" y="0" class="st5 st6 st7">RCA</tspan><tspan x="1.5" y="38.4" class="st8 st6 st7">76%</tspan></text>
	</g>
</g>
<g id="tier1">
	<g id="node">
		<rect id="shape_6_" x="667" y="444.4" class="st14" width="298" height="117.6"/>
		<text transform="matrix(1 0 0 1 763.6152 497.3818)"><tspan x="0" y="0" class="st5 st6 st7">STORE</tspan><tspan x="45.4" y="38.4" class="st8 st6 st7">?</tspan></text>
	</g>
	<g id="path_11_">
		<g id="line_5_">
			<g>
				<line class="path" x1="816" y1="320.9" x2="816" y2="446"/>
				<g>
					<polygon class="st9" points="806.1,306 816.1,322.7 826,306 					"/>
				</g>
			</g>
		</g>
	</g>
</g>
<g id="start">
	<g>
		<circle cx="816.1" cy="288.9" r="61.8"/>
		<g>
			<polyline class="st15" points="843.3,295.9 843.3,311.9 789,311.9 789,295.9 			"/>
			<line class="st15" x1="816.1" y1="257.6" x2="816.1" y2="299.8"/>
			<polyline class="st15" points="833.5,282.6 816.1,299.9 798.8,282.6 			"/>
		</g>
	</g>
</g>
<g id="title">
	<text transform="matrix(1 0 0 1 343.4556 299.4863)" class="st8 st16 st7">Recording</text>
	<text transform="matrix(1 0 0 1 1120.4526 299.8926)" class="st8 st16 st7">Publishing</text>
	<text transform="matrix(1 0 0 1 578.1846 94.8496)" class="st5 st17 st18">CAN &amp; MEX PHYSICAL</text>
</g>
</svg>
