<?xml version="1.0" encoding="utf-8"?>
<!-- Generator: Adobe Illustrator 22.1.0, SVG Export Plug-In . SVG Version: 6.00 Build 0)  -->
<svg version="1.1" id="Uk_x5F_Downloads" xmlns="http://www.w3.org/2000/svg" xmlns:xlink="http://www.w3.org/1999/xlink" x="0px"
	 y="0px" viewBox="0 0 1630 1439" style="enable-background:new 0 0 1630 1439;" xml:space="preserve">
<style type="text/css">
	.path{fill:none;stroke:#29ABE2;stroke-width:2;stroke-miterlimit:10;}
	.label_bg{fill:#ED1C24;}
	.label_text{fill:#FFFF00;}
	.label_info{fill:#39B54A;}
	.label_bg_x0020_6{fill:#ED1C24;}
	.label_bg_x0020_11{fill:#ED1C24;}
	.st0{opacity:0.4;}
	.st1{opacity:0.3;fill:#0AE88D;}
	.st2{opacity:0.25;fill:#E6E6E6;}
	.st3{fill:#FB3D79;}
	.st4{fill:#FFFFFF;}
	.st5{font-family:'Roboto-Medium';}
	.st6{font-size:32.0081px;}
	.st7{letter-spacing:1;}
	.st8{font-family:'Roboto-Light';}
	.st9{fill:#29ABE2;}
	.st10{font-family:'Roboto-Regular';}
	.st11{font-size:25.1316px;}
	.st12{font-family:'MyriadPro-Regular';}
	.st13{font-size:12px;}
	.st14{fill:#F4F4F4;}
	.st15{fill:none;stroke:#29ABE2;stroke-width:1.9711;stroke-miterlimit:10;}
	.st16{fill:#63CAFF;}
	.st17{font-size:21.9869px;}
	.st18{fill:none;stroke:#FFFFFF;stroke-width:5.3996;stroke-miterlimit:10;}
	.st19{font-size:28.1028px;}
	.st20{font-size:43px;}
	.st21{letter-spacing:2;}
</style>
<g id="hidden">
	<g class="st0">
		<g>
			<rect x="49" y="443.4" class="st1" width="298" height="117.4"/>
			<rect x="358" y="443.4" class="st1" width="298" height="117.4"/>
			<rect x="667" y="443.4" class="st1" width="298" height="117.4"/>
			<rect x="976" y="443.4" class="st1" width="298" height="117.4"/>
			<rect x="1285" y="443.4" class="st1" width="298" height="117.4"/>
		</g>
		<g>
			<rect x="49" y="571.4" class="st1" width="298" height="117.4"/>
			<rect x="358" y="571.4" class="st1" width="298" height="117.4"/>
			<rect x="667" y="571.4" class="st1" width="298" height="117.4"/>
			<rect x="976" y="571.4" class="st1" width="298" height="117.4"/>
			<rect x="1285" y="571.4" class="st1" width="298" height="117.4"/>
		</g>
		<g>
			<rect x="49" y="699.4" class="st1" width="298" height="117.4"/>
			<rect x="358" y="699.4" class="st1" width="298" height="117.4"/>
			<rect x="667" y="699.4" class="st1" width="298" height="117.4"/>
			<rect x="976" y="699.4" class="st1" width="298" height="117.4"/>
			<rect x="1285" y="699.4" class="st1" width="298" height="117.4"/>
		</g>
		<g>
			<rect x="49" y="827.4" class="st1" width="298" height="117.4"/>
			<rect x="358" y="827.4" class="st1" width="298" height="117.4"/>
			<rect x="667" y="827.4" class="st1" width="298" height="117.4"/>
			<rect x="976" y="827.4" class="st1" width="298" height="117.4"/>
			<rect x="1285" y="827.4" class="st1" width="298" height="117.4"/>
		</g>
		<g>
			<rect x="49" y="955.4" class="st1" width="298" height="117.4"/>
			<rect x="358" y="955.4" class="st1" width="298" height="117.4"/>
			<rect x="667" y="955.4" class="st1" width="298" height="117.4"/>
			<rect x="976" y="955.4" class="st1" width="298" height="117.4"/>
			<rect x="1285" y="955.4" class="st1" width="298" height="117.4"/>
		</g>
		<g>
			<rect x="49" y="1083.4" class="st1" width="298" height="117.4"/>
			<rect x="358" y="1083.4" class="st1" width="298" height="117.4"/>
			<rect x="667" y="1083.4" class="st1" width="298" height="117.4"/>
			<rect x="976" y="1083.4" class="st1" width="298" height="117.4"/>
			<rect x="1285" y="1083.4" class="st1" width="298" height="117.4"/>
		</g>
		<g>
			<rect x="49" y="1211.4" class="st1" width="298" height="117.4"/>
			<rect x="358" y="1211.4" class="st1" width="298" height="117.4"/>
			<rect x="667" y="1211.4" class="st1" width="298" height="117.4"/>
			<rect x="976" y="1211.4" class="st1" width="298" height="117.4"/>
			<rect x="1285" y="1211.4" class="st1" width="298" height="117.4"/>
		</g>
		<g>
			<rect x="49" y="1339.4" class="st1" width="298" height="117.4"/>
			<rect x="358" y="1339.4" class="st1" width="298" height="117.4"/>
			<rect x="667" y="1339.4" class="st1" width="298" height="117.4"/>
			<rect x="976" y="1339.4" class="st1" width="298" height="117.4"/>
			<rect x="1285" y="1339.4" class="st1" width="298" height="117.4"/>
		</g>
	</g>
	<rect x="-144" y="-83" class="st2" width="960" height="2421"/>
</g>
<g id="tier3">
	<g id="node_6_">
		<rect id="shape_15_" x="667" y="1211.4" class="st3" width="298" height="117.6"/>
		<text transform="matrix(1 0 0 1 702.1045 1264.3818)"><tspan x="0" y="0" class="st4 st5 st6 st7">IMOGEN HEAP</tspan><tspan x="83" y="38.4" class="st4 st8 st6 st7">63%</tspan></text>
	</g>
	<g id="path_9_">
		<g id="line_7_">
			<g>
				<polyline class="path" points="961.1,758 816,758 816,1211 				"/>
				<g>
					<polygon class="st9" points="976,748.1 959.3,758.1 976,768 					"/>
				</g>
			</g>
		</g>
		<g id="label_8_">
			<path id="shape_13_" class="label_bg" d="M845,779h-60c-11.5,0-21-9.5-21-21l0,0c0-11.5,9.5-21,21-21h60c11.5,0,21,9.5,21,21l0,0
				C866,769.5,856.5,779,845,779z"/>
			<g>
				<text transform="matrix(1 0 0 1 790.8755 766.499)" class="label_text st10 st11 st7">42%</text>
			</g>
		</g>
	</g>
	<g id="path_8_">
		<g id="line_6_">
			<g>
				<line class="path" x1="1270.1" y1="1265" x2="965" y2="1265"/>
				<g>
					<polygon class="st9" points="1285,1255.1 1268.3,1265.1 1285,1275 					"/>
				</g>
			</g>
		</g>
		<g id="label_11_">
			<path id="shape_18_" class="label_bg_x0020_11" d="M1155,1286h-60c-11.6,0-21-9.4-21-21l0,0c0-11.6,9.4-21,21-21h60
				c11.6,0,21,9.4,21,21l0,0C1176,1276.6,1166.6,1286,1155,1286z"/>
			<g>
				<text transform="matrix(1 0 0 1 1100.8755 1273.499)" class="label_text st10 st11 st7">21%</text>
			</g>
		</g>
	</g>
	<text transform="matrix(1 0 0 1 1449 1185)" class="st12 st13">FB3D79</text>
</g>
<g id="tier2">
	<g id="node_4_">
		<rect id="shape_3_" x="1285" y="1211.4" class="st14" width="298" height="117.6"/>
		<text transform="matrix(1 0 0 1 1367.1406 1264.3818)"><tspan x="0" y="0" class="st5 st6 st7">IMAGEM</tspan><tspan x="36" y="38.4" class="st8 st6 st7">21%</tspan></text>
	</g>
	<g id="path_1_">
		<g id="line_1_">
			<g>
				<polyline class="st15" points="1288.7,758 1434,758 1434,1211 				"/>
				<g>
					<polygon class="st9" points="1274,767.8 1290.5,757.9 1274,748.1 					"/>
				</g>
			</g>
		</g>
		<g id="label_1_">
			<path id="shape_1_" class="label_bg_x0020_6" d="M1464,779h-60c-11.6,0-21-9.5-21-21l0,0c0-11.5,9.4-21,21-21h60
				c11.6,0,21,9.5,21,21l0,0C1485,769.5,1475.6,779,1464,779z"/>
			<g>
				<text transform="matrix(1 0 0 1 1409.8755 766.499)" class="label_text st10 st11 st7">42%</text>
			</g>
		</g>
	</g>
</g>
<g id="tier1">
	<g id="node_2_">
		<rect id="shape_7_" x="976" y="699.4" class="st14" width="298" height="117.6"/>
		<text transform="matrix(1 0 0 1 1070.4355 752.3818)"><tspan x="0" y="0" class="st5 st6 st7">ASCAP</tspan><tspan x="23.7" y="38.4" class="st8 st6 st7">16%</tspan></text>
	</g>
	<g id="path_2_">
		<g id="line_2_">
			<g>
				<polyline class="st15" points="815,365.7 815,503 1125,503 1125,699 				"/>
				<g>
					<polygon class="st9" points="805.2,351 815.1,367.5 824.9,351 					"/>
				</g>
			</g>
		</g>
		<g id="label_2_">
			<path id="shape_2_" class="label_bg" d="M1165,525h-79c-11.6,0-21-9.5-21-21v0c0-11.5,9.4-21,21-21h79c11.6,0,21,9.4,21,21v0
				C1186,515.5,1176.6,525,1165,525z"/>
			<g id="info_1_">
				<circle class="st4" cx="1165" cy="504" r="14"/>
				<g>
					<text transform="matrix(1 0 0 1 1162.5771 512.1191)" class="st16 st5 st17">i</text>
					<text transform="matrix(1 0 0 1 1162.5771 512.1191)" class="label_info st5 st17">i</text>
				</g>
			</g>
			<g>
				<text transform="matrix(1 0 0 1 1084.1909 512.499)" class="label_text st10 st11 st7">100%</text>
			</g>
		</g>
	</g>
</g>
<g id="start">
	<g>
		<circle cx="816.1" cy="288.9" r="61.8"/>
		<g>
			<polyline class="st18" points="843.3,295.9 843.3,311.9 789,311.9 789,295.9 			"/>
			<line class="st18" x1="816.1" y1="257.6" x2="816.1" y2="299.8"/>
			<polyline class="st18" points="833.5,282.6 816.1,299.9 798.8,282.6 			"/>
		</g>
	</g>
</g>
<g id="title">
	<text transform="matrix(1 0 0 1 343.4556 299.4863)" class="st8 st19 st7">Recording</text>
	<text transform="matrix(1 0 0 1 1120.4526 299.8926)" class="st8 st19 st7">Publishing</text>
	<text transform="matrix(1 0 0 1 686.2114 94.8496)" class="st5 st20 st21">USA PUBLIC</text>
</g>
</svg>
