<?xml version="1.0" encoding="utf-8"?>
<!-- Generator: Adobe Illustrator 22.1.0, SVG Export Plug-In . SVG Version: 6.00 Build 0)  -->
<svg version="1.1" id="Uk_x5F_Downloads" xmlns="http://www.w3.org/2000/svg" xmlns:xlink="http://www.w3.org/1999/xlink" x="0px"
	 y="0px" viewBox="0 0 1630 1439" style="enable-background:new 0 0 1630 1439;" xml:space="preserve">
<style type="text/css">
	.path{fill:none;stroke:#29ABE2;stroke-width:2;stroke-miterlimit:10;}
	.label_bg{fill:#ED1C24;}
	.label_text{fill:#FFFF00;}
	.label_bg_x0020_4{fill:#ED1C24;}
	.label_bg_x0020_5{fill:#ED1C24;}
	.label_bg_x0020_8{fill:#ED1C24;}
	.st0{display:none;}
	.st1{display:inline;opacity:0.4;}
	.st2{opacity:0.3;fill:#0AE88D;}
	.st3{display:inline;opacity:0.25;fill:#E6E6E6;}
	.st4{fill:#FF3366;}
	.st5{fill:#FFFFFF;}
	.st6{font-family:'Roboto-Medium';}
	.st7{font-size:32.0081px;}
	.st8{letter-spacing:1;}
	.st9{font-family:'Roboto-Light';}
	.st10{fill:none;stroke:#8CC63F;stroke-width:2;stroke-miterlimit:10;}
	.st11{fill:none;stroke:#8CC63F;stroke-width:2;stroke-miterlimit:10;stroke-dasharray:11.7225,11.7225;}
	.st12{fill:#8CC63F;}
	.st13{font-family:'Roboto-Regular';}
	.st14{font-size:25.1316px;}
	.st15{fill:#29ABE2;}
	.st16{fill:#F4F4F4;}
	.st17{fill:none;stroke:#8CC63F;stroke-width:2;stroke-miterlimit:10;stroke-dasharray:11.4,11.4;}
	.st18{fill:none;stroke:#8CC63F;stroke-width:2;stroke-miterlimit:10;stroke-dasharray:11.3077,11.3077;}
	.st19{fill:none;stroke:#8CC63F;stroke-width:2;stroke-miterlimit:10;stroke-dasharray:11.9222,11.9222;}
	.st20{fill:none;stroke:#29ABE2;stroke-width:1.9711;stroke-miterlimit:10;}
	.st21{fill:none;stroke:#29ABE2;stroke-width:1.9911;stroke-miterlimit:10;}
	.st22{fill:#E8E8E8;}
	.st23{fill:none;stroke:#FFFFFF;stroke-width:5.3996;stroke-miterlimit:10;}
	.st24{font-size:28.1028px;}
	.st25{font-size:43px;}
	.st26{letter-spacing:2;}
</style>
<g id="hidden" class="st0">
	<g class="st1">
		<g>
			<rect x="49" y="443.4" class="st2" width="298" height="117.4"/>
			<rect x="358" y="443.4" class="st2" width="298" height="117.4"/>
			<rect x="667" y="443.4" class="st2" width="298" height="117.4"/>
			<rect x="976" y="443.4" class="st2" width="298" height="117.4"/>
			<rect x="1285" y="443.4" class="st2" width="298" height="117.4"/>
		</g>
		<g>
			<rect x="49" y="571.4" class="st2" width="298" height="117.4"/>
			<rect x="358" y="571.4" class="st2" width="298" height="117.4"/>
			<rect x="667" y="571.4" class="st2" width="298" height="117.4"/>
			<rect x="976" y="571.4" class="st2" width="298" height="117.4"/>
			<rect x="1285" y="571.4" class="st2" width="298" height="117.4"/>
		</g>
		<g>
			<rect x="49" y="699.4" class="st2" width="298" height="117.4"/>
			<rect x="358" y="699.4" class="st2" width="298" height="117.4"/>
			<rect x="667" y="699.4" class="st2" width="298" height="117.4"/>
			<rect x="976" y="699.4" class="st2" width="298" height="117.4"/>
			<rect x="1285" y="699.4" class="st2" width="298" height="117.4"/>
		</g>
		<g>
			<rect x="49" y="827.4" class="st2" width="298" height="117.4"/>
			<rect x="358" y="827.4" class="st2" width="298" height="117.4"/>
			<rect x="667" y="827.4" class="st2" width="298" height="117.4"/>
			<rect x="976" y="827.4" class="st2" width="298" height="117.4"/>
			<rect x="1285" y="827.4" class="st2" width="298" height="117.4"/>
		</g>
		<g>
			<rect x="49" y="955.4" class="st2" width="298" height="117.4"/>
			<rect x="358" y="955.4" class="st2" width="298" height="117.4"/>
			<rect x="667" y="955.4" class="st2" width="298" height="117.4"/>
			<rect x="976" y="955.4" class="st2" width="298" height="117.4"/>
			<rect x="1285" y="955.4" class="st2" width="298" height="117.4"/>
		</g>
		<g>
			<rect x="49" y="1083.4" class="st2" width="298" height="117.4"/>
			<rect x="358" y="1083.4" class="st2" width="298" height="117.4"/>
			<rect x="667" y="1083.4" class="st2" width="298" height="117.4"/>
			<rect x="976" y="1083.4" class="st2" width="298" height="117.4"/>
			<rect x="1285" y="1083.4" class="st2" width="298" height="117.4"/>
		</g>
		<g>
			<rect x="49" y="1211.4" class="st2" width="298" height="117.4"/>
			<rect x="358" y="1211.4" class="st2" width="298" height="117.4"/>
			<rect x="667" y="1211.4" class="st2" width="298" height="117.4"/>
			<rect x="976" y="1211.4" class="st2" width="298" height="117.4"/>
			<rect x="1285" y="1211.4" class="st2" width="298" height="117.4"/>
		</g>
		<g>
			<rect x="49" y="1339.4" class="st2" width="298" height="117.4"/>
			<rect x="358" y="1339.4" class="st2" width="298" height="117.4"/>
			<rect x="667" y="1339.4" class="st2" width="298" height="117.4"/>
			<rect x="976" y="1339.4" class="st2" width="298" height="117.4"/>
			<rect x="1285" y="1339.4" class="st2" width="298" height="117.4"/>
		</g>
	</g>
	<rect x="-144" y="-83" class="st3" width="960" height="2421"/>
</g>
<g id="tier5">
	<g id="node_6_">
		<rect id="shape_15_" x="667" y="1211.4" class="st4" width="298" height="117.6"/>
		<text transform="matrix(1 0 0 1 702.1045 1264.3818)"><tspan x="0" y="0" class="st5 st6 st7 st8">IMOGEN HEAP</tspan><tspan x="68.7" y="38.4" class="st5 st9 st7 st8">17.5%</tspan></text>
	</g>
	<g id="path_10_">
		<g id="line_x5F_dashed_1_">
			<g>
				<line class="st10" x1="965" y1="1242" x2="971" y2="1242"/>
				<line class="st11" x1="982.7" y1="1241.9" x2="1258.2" y2="1240.2"/>
				<line class="st10" x1="1264.1" y1="1240.1" x2="1270.1" y2="1240.1"/>
				<g>
					<polygon class="st12" points="1285.1,1249.9 1268.3,1240 1284.9,1230 					"/>
				</g>
			</g>
		</g>
		<g id="label_9_">
			<path id="shape_14_" class="label_bg" d="M1155,1263c11.6,0,21-9.4,21-21l0,0c0-11.6-9.4-21-21-21h-60c-11.6,0-21,9.4-21,21l0,0
				c0,11.6,9.4,21,21,21H1155z"/>
			<g>
				<text transform="matrix(1 0 0 1 1096.9399 1250.499)" class="label_text st13 st14 st8">1.1%</text>
			</g>
		</g>
	</g>
	<g id="path_9_">
		<g id="line_7_">
			<g>
				<polyline class="path" points="1057,831.9 1057,1142 816,1142 816,1211 				"/>
				<g>
					<polygon class="st15" points="1047.1,817 1057.1,833.7 1067,817 					"/>
				</g>
			</g>
		</g>
		<g id="label_8_">
			<path id="shape_13_" class="label_bg" d="M1087,1037h-60c-11.5,0-21-9.4-21-21l0,0c0-11.5,9.5-21,21-21h60c11.6,0,21,9.5,21,21
				l0,0C1108,1027.6,1098.6,1037,1087,1037z"/>
			<g>
				<text transform="matrix(1 0 0 1 1028.9399 1024.499)" class="label_text st13 st14 st8">2.2%</text>
			</g>
		</g>
	</g>
	<g id="path_8_">
		<g id="line_6_">
			<g>
				<line class="path" x1="1270.1" y1="1298" x2="965" y2="1298"/>
				<g>
					<polygon class="st15" points="1285,1288.1 1268.3,1298.1 1285,1308 					"/>
				</g>
			</g>
		</g>
		<g id="label_11_">
			<path id="shape_18_" class="label_bg_x0020_5" d="M1155,1319h-60c-11.6,0-21-9.4-21-21l0,0c0-11.6,9.4-21,21-21h60
				c11.6,0,21,9.4,21,21l0,0C1176,1309.6,1166.6,1319,1155,1319z"/>
			<g>
				<text transform="matrix(1 0 0 1 1096.9399 1306.499)" class="label_text st13 st14 st8">3.5%</text>
			</g>
		</g>
	</g>
	<g id="path_7_">
		<g id="line_8_">
			<g>
				<line class="path" x1="361.9" y1="1270" x2="667" y2="1270"/>
				<g>
					<polygon class="st15" points="347,1279.9 363.7,1269.9 347,1260 					"/>
				</g>
			</g>
		</g>
		<g id="label_6_">
			<path id="shape_11_" class="label_bg" d="M537,1291h-60c-11.5,0-21-9.4-21-21l0,0c0-11.6,9.4-21,21-21h60c11.5,0,21,9.4,21,21
				l0,0C558,1281.6,548.5,1291,537,1291z"/>
			<g>
				<text transform="matrix(1 0 0 1 471.2554 1278.499)" class="label_text st13 st14 st8">10.7%</text>
			</g>
		</g>
	</g>
</g>
<g id="tier4">
	<g id="node_7_">
		<rect id="shape_20_" x="50" y="1211.4" class="st5" width="298" height="117.6"/>
		<text transform="matrix(1 0 0 1 87.4912 1264.3818)"><tspan x="0" y="0" class="st6 st7 st8">MEGAPHONIC</tspan><tspan x="89.3" y="38.4" class="st9 st7 st8">0%</tspan></text>
	</g>
	<g id="path_3_">
		<g id="line_9_">
			<g>
				<line class="path" x1="198" y1="831.9" x2="198" y2="1211"/>
				<g>
					<polygon class="st15" points="188.1,817 198.1,833.7 208,817 					"/>
				</g>
			</g>
		</g>
		<g id="label_10_">
			<path id="shape_17_" class="label_bg" d="M228,1035h-60c-11.5,0-21-9.4-21-21l0,0c0-11.5,9.4-21,21-21h60c11.5,0,21,9.5,21,21
				l0,0C249,1025.6,239.6,1035,228,1035z"/>
			<g>
				<text transform="matrix(1 0 0 1 162.2554 1022.499)" class="label_text st13 st14 st8">10.7%</text>
			</g>
		</g>
	</g>
	<g id="node_4_">
		<rect id="shape_3_" x="1285" y="1211.4" class="st16" width="298" height="117.6"/>
		<text transform="matrix(1 0 0 1 1367.1406 1264.3818)"><tspan x="0" y="0" class="st6 st7 st8">IMAGEM</tspan><tspan x="-6.6" y="38.4" class="st9 st7 st8">2.2% - X%</tspan></text>
	</g>
	<g id="path_4_">
		<g id="line_3_">
			<g>
				<line class="path" x1="1434" y1="1087.9" x2="1434" y2="1211"/>
				<g>
					<polygon class="st15" points="1424.1,1073 1434.1,1089.7 1444,1073 					"/>
				</g>
			</g>
		</g>
		<g id="label_3_">
			<path id="shape_9_" class="label_bg_x0020_4" d="M1464,1168h-60c-11.6,0-21-9.4-21-21l0,0c0-11.6,9.4-21,21-21h60
				c11.6,0,21,9.4,21,21l0,0C1485,1158.6,1475.6,1168,1464,1168z"/>
			<g>
				<text transform="matrix(1 0 0 1 1397.2554 1155.499)" class="label_text st13 st14 st8">4.65%</text>
			</g>
		</g>
	</g>
	<g id="path_6_">
		<g id="line_x5F_dashed_3_">
			<g>
				<line class="st10" x1="1361" y1="1207" x2="1361" y2="1201"/>
				<line class="st17" x1="1361" y1="1189.6" x2="1361" y2="1149.7"/>
				<polyline class="st10" points="1361,1144 1361,1138 1355,1138 				"/>
				<line class="st18" x1="1343.7" y1="1138" x2="1213.7" y2="1138"/>
				<polyline class="st10" points="1208,1138 1202,1138 1202,1132 				"/>
				<line class="st19" x1="1202" y1="1120.1" x2="1202" y2="839.9"/>
				<line class="st10" x1="1202" y1="833.9" x2="1202" y2="827.9"/>
				<g>
					<polygon class="st12" points="1211.9,813 1201.9,829.7 1192,813 					"/>
				</g>
			</g>
		</g>
		<g id="label_5_">
			<g>
				<text transform="matrix(1 0 0 1 1158.9399 1020.499)" class="label_text st13 st14 st8">2.2%</text>
			</g>
			<g id="label_7_">
				<path id="shape_12_" class="label_bg_x0020_8" d="M1232,1037h-60c-11.6,0-21-9.4-21-21l0,0c0-11.5,9.4-21,21-21h60
					c11.6,0,21,9.5,21,21l0,0C1253,1027.6,1243.6,1037,1232,1037z"/>
				<g>
					<text transform="matrix(1 0 0 1 1173.9399 1024.499)" class="label_text st13 st14 st8">2.2%</text>
				</g>
			</g>
		</g>
	</g>
</g>
<g id="tier3">
	<g id="node_5_">
		<rect id="shape_10_" x="1285" y="955.4" class="st16" width="298" height="117.6"/>
		<text transform="matrix(1 0 0 1 1343.2031 1008.3818)"><tspan x="0" y="0" class="st6 st7 st8">UNIVERSAL</tspan><tspan x="68.7" y="38.4" class="st9 st7 st8">X%</tspan></text>
	</g>
	<g id="path_5_">
		<g id="line_4_">
			<g>
				<line class="path" x1="1434" y1="831.9" x2="1434" y2="955"/>
				<g>
					<polygon class="st15" points="1424.1,817 1434.1,833.7 1444,817 					"/>
				</g>
			</g>
		</g>
		<g id="label_4_">
			<path id="shape_4_" class="label_bg" d="M1464,907h-60c-11.6,0-21-9.5-21-21l0,0c0-11.5,9.4-21,21-21h60c11.6,0,21,9.5,21,21l0,0
				C1485,897.5,1475.6,907,1464,907z"/>
			<g>
				<text transform="matrix(1 0 0 1 1398.2554 894.499)" class="label_text st13 st14 st8">4.65%</text>
			</g>
		</g>
	</g>
</g>
<g id="tier2">
	<g id="node_3_">
		<rect id="shape_8_" x="1285" y="699.4" class="st16" width="298" height="117.6"/>
		<text transform="matrix(1 0 0 1 1342.1709 752.3818)"><tspan x="0" y="0" class="st6 st7 st8">HARRY FOX</tspan><tspan x="56.3" y="38.4" class="st9 st7 st8">0.6%</tspan></text>
	</g>
	<g id="node_2_">
		<rect id="shape_7_" x="976" y="699.4" class="st16" width="298" height="117.6"/>
		<text transform="matrix(1 0 0 1 1070.4355 752.3818)"><tspan x="0" y="0" class="st6 st7 st8">ASCAP</tspan><tspan x="19.1" y="38.4" class="st9 st7 st8">0.9%</tspan></text>
	</g>
	<g id="path_2_">
		<g id="line_2_">
			<g>
				<polyline class="st20" points="979.7,530 1125,530 1125,699 				"/>
				<g>
					<polygon class="st15" points="965,539.8 981.5,529.9 965,520.1 					"/>
				</g>
			</g>
		</g>
		<g id="label_2_">
			<path id="shape_2_" class="label_bg" d="M1155,551h-60c-11.6,0-21-9.5-21-21l0,0c0-11.5,9.4-21,21-21h60c11.6,0,21,9.5,21,21l0,0
				C1176,541.5,1166.6,551,1155,551z"/>
			<g>
				<text transform="matrix(1 0 0 1 1089.2554 538.499)" class="label_text st13 st14 st8">5.25%</text>
			</g>
		</g>
	</g>
	<g id="path_1_">
		<g id="line_1_">
			<g>
				<polyline class="st21" points="979.9,477 1434,477 1434,699 				"/>
				<g>
					<polygon class="st15" points="965,486.9 981.7,476.9 965,467 					"/>
				</g>
			</g>
		</g>
		<g id="label_1_">
			<path id="shape" class="label_bg" d="M1464,498h-60c-11.6,0-21-9.4-21-21v0c0-11.5,9.4-21,21-21h60c11.6,0,21,9.4,21,21v0
				C1485,488.6,1475.6,498,1464,498z"/>
			<g>
				<text transform="matrix(1 0 0 1 1397.2554 485.499)" class="label_text st13 st14 st8">5.25%</text>
			</g>
		</g>
	</g>
	<g id="path">
		<g id="line">
			<g>
				<polyline class="path" points="652.1,500 198,500 198,730.4 				"/>
				<g>
					<polygon class="st15" points="667,490.1 650.3,500.1 667,510 					"/>
				</g>
			</g>
		</g>
		<g id="label">
			<path id="shape_1_" class="label_bg" d="M228,524h-60c-11.5,0-21-9.5-21-21v0c0-11.5,9.4-21,21-21h60c11.5,0,21,9.4,21,21v0
				C249,514.5,239.6,524,228,524z"/>
			<g>
				<text transform="matrix(1 0 0 1 162.2554 511.499)" class="label_text st13 st14 st8">59.5%</text>
			</g>
		</g>
	</g>
	<g id="node_1_">
		<rect id="shape_16_" x="49" y="699.4" class="st5" width="298" height="117.6"/>
		<text transform="matrix(1 0 0 1 165.5879 752.3818)"><tspan x="0" y="0" class="st6 st7 st8">RCA</tspan><tspan x="-12.8" y="38.4" class="st9 st7 st8">48.8%</tspan></text>
	</g>
</g>
<g id="tier1">
	<g id="node">
		<rect id="shape_6_" x="667" y="444.4" class="st22" width="298" height="117.6"/>
		<text transform="matrix(1 0 0 1 784.3301 497.3818)"><tspan x="0" y="0" class="st6 st7 st8">DSP</tspan><tspan x="0.8" y="38.4" class="st9 st7 st8">30%</tspan></text>
	</g>
	<g id="path_11_">
		<g id="line_5_">
			<g>
				<line class="path" x1="816" y1="320.9" x2="816" y2="446"/>
				<g>
					<polygon class="st15" points="806.1,306 816.1,322.7 826,306 					"/>
				</g>
			</g>
		</g>
	</g>
</g>
<g id="start">
	<g>
		<circle cx="816.1" cy="288.9" r="61.8"/>
		<g>
			<polyline class="st23" points="843.3,295.9 843.3,311.9 789,311.9 789,295.9 			"/>
			<line class="st23" x1="816.1" y1="257.6" x2="816.1" y2="299.8"/>
			<polyline class="st23" points="833.5,282.6 816.1,299.9 798.8,282.6 			"/>
		</g>
	</g>
</g>
<g id="title">
	<text transform="matrix(1 0 0 1 343.4556 299.4863)" class="st9 st24 st8">Recording</text>
	<text transform="matrix(1 0 0 1 1120.4526 299.8926)" class="st9 st24 st8">Publishing</text>
	<text transform="matrix(1 0 0 1 635.3462 94.8496)" class="st6 st25 st26">USA STREAMING</text>
</g>
</svg>
