<?xml version="1.0" encoding="utf-8"?>
<!-- Generator: Adobe Illustrator 22.1.0, SVG Export Plug-In . SVG Version: 6.00 Build 0)  -->
<svg version="1.1" id="Uk_x5F_Downloads" xmlns="http://www.w3.org/2000/svg" xmlns:xlink="http://www.w3.org/1999/xlink" x="0px"
	 y="0px" viewBox="0 0 1630 1439" style="enable-background:new 0 0 1630 1439;" xml:space="preserve">
<style type="text/css">
	.path{fill:none;stroke:#29ABE2;stroke-width:2;stroke-miterlimit:10;}
	.label_bg{fill:#ED1C24;}
	.label_text{fill:#FFFF00;}
	.label_info{fill:#39B54A;}
	.label_bg_x0020_6{fill:#ED1C24;}
	.label_bg_x0020_8{fill:#ED1C24;}
	.label_bg_x0020_9{fill:#ED1C24;}
	.label_bg_x0020_10{fill:#ED1C24;}
	.label_bg_x0020_11{fill:#ED1C24;}
	.label_bg_x0020_12{fill:#ED1C24;}
	.st0{opacity:0.4;}
	.st1{opacity:0.3;fill:#0AE88D;}
	.st2{opacity:0.25;fill:#E6E6E6;}
	.st3{fill:#FB3D79;}
	.st4{fill:#FFFFFF;}
	.st5{font-family:'Roboto-Medium';}
	.st6{font-size:32.0081px;}
	.st7{letter-spacing:1;}
	.st8{font-family:'Roboto-Light';}
	.st9{fill:#29ABE2;}
	.st10{font-family:'Roboto-Regular';}
	.st11{font-size:25.1316px;}
	.st12{fill:#F4F4F4;}
	.st13{fill:none;stroke:#29ABE2;stroke-width:1.9711;stroke-miterlimit:10;}
	.st14{fill:#63CAFF;}
	.st15{font-size:21.9869px;}
	.st16{fill:none;stroke:#FFFFFF;stroke-width:5.3996;stroke-miterlimit:10;}
	.st17{font-size:28.1028px;}
	.st18{font-size:43px;}
	.st19{letter-spacing:2;}
</style>
<g id="hidden">
	<g class="st0">
		<g>
			<rect x="49" y="443.4" class="st1" width="298" height="117.4"/>
			<rect x="358" y="443.4" class="st1" width="298" height="117.4"/>
			<rect x="667" y="443.4" class="st1" width="298" height="117.4"/>
			<rect x="976" y="443.4" class="st1" width="298" height="117.4"/>
			<rect x="1285" y="443.4" class="st1" width="298" height="117.4"/>
		</g>
		<g>
			<rect x="49" y="571.4" class="st1" width="298" height="117.4"/>
			<rect x="358" y="571.4" class="st1" width="298" height="117.4"/>
			<rect x="667" y="571.4" class="st1" width="298" height="117.4"/>
			<rect x="976" y="571.4" class="st1" width="298" height="117.4"/>
			<rect x="1285" y="571.4" class="st1" width="298" height="117.4"/>
		</g>
		<g>
			<rect x="49" y="699.4" class="st1" width="298" height="117.4"/>
			<rect x="358" y="699.4" class="st1" width="298" height="117.4"/>
			<rect x="667" y="699.4" class="st1" width="298" height="117.4"/>
			<rect x="976" y="699.4" class="st1" width="298" height="117.4"/>
			<rect x="1285" y="699.4" class="st1" width="298" height="117.4"/>
		</g>
		<g>
			<rect x="49" y="827.4" class="st1" width="298" height="117.4"/>
			<rect x="358" y="827.4" class="st1" width="298" height="117.4"/>
			<rect x="667" y="827.4" class="st1" width="298" height="117.4"/>
			<rect x="976" y="827.4" class="st1" width="298" height="117.4"/>
			<rect x="1285" y="827.4" class="st1" width="298" height="117.4"/>
		</g>
		<g>
			<rect x="49" y="955.4" class="st1" width="298" height="117.4"/>
			<rect x="358" y="955.4" class="st1" width="298" height="117.4"/>
			<rect x="667" y="955.4" class="st1" width="298" height="117.4"/>
			<rect x="976" y="955.4" class="st1" width="298" height="117.4"/>
			<rect x="1285" y="955.4" class="st1" width="298" height="117.4"/>
		</g>
		<g>
			<rect x="49" y="1083.4" class="st1" width="298" height="117.4"/>
			<rect x="358" y="1083.4" class="st1" width="298" height="117.4"/>
			<rect x="667" y="1083.4" class="st1" width="298" height="117.4"/>
			<rect x="976" y="1083.4" class="st1" width="298" height="117.4"/>
			<rect x="1285" y="1083.4" class="st1" width="298" height="117.4"/>
		</g>
		<g>
			<rect x="49" y="1211.4" class="st1" width="298" height="117.4"/>
			<rect x="358" y="1211.4" class="st1" width="298" height="117.4"/>
			<rect x="667" y="1211.4" class="st1" width="298" height="117.4"/>
			<rect x="976" y="1211.4" class="st1" width="298" height="117.4"/>
			<rect x="1285" y="1211.4" class="st1" width="298" height="117.4"/>
		</g>
		<g>
			<rect x="49" y="1339.4" class="st1" width="298" height="117.4"/>
			<rect x="358" y="1339.4" class="st1" width="298" height="117.4"/>
			<rect x="667" y="1339.4" class="st1" width="298" height="117.4"/>
			<rect x="976" y="1339.4" class="st1" width="298" height="117.4"/>
			<rect x="1285" y="1339.4" class="st1" width="298" height="117.4"/>
		</g>
	</g>
	<rect x="-144" y="-83" class="st2" width="960" height="2421"/>
</g>
<g id="tier4">
	<g id="node_6_">
		<rect id="shape_15_" x="667" y="1211.4" class="st3" width="298" height="117.6"/>
		<text transform="matrix(1 0 0 1 702.1045 1264.3818)"><tspan x="0" y="0" class="st4 st5 st6 st7">IMOGEN HEAP</tspan><tspan x="59" y="38.4" class="st4 st8 st6 st7">51.26%</tspan></text>
	</g>
	<g id="path_9_">
		<g id="line_7_">
			<g>
				<polyline class="path" points="961.1,758 816,758 816,1211 				"/>
				<g>
					<polygon class="st9" points="976,748.1 959.3,758.1 976,768 					"/>
				</g>
			</g>
		</g>
		<g id="label_8_">
			<path id="shape_13_" class="label_bg" d="M845,779h-60c-11.5,0-21-9.5-21-21l0,0c0-11.5,9.5-21,21-21h60c11.5,0,21,9.5,21,21l0,0
				C866,769.5,856.5,779,845,779z"/>
			<g>
				<text transform="matrix(1 0 0 1 790.8755 766.499)" class="label_text st10 st11 st7">21%</text>
			</g>
		</g>
	</g>
	<g id="path_8_">
		<g id="line_6_">
			<g>
				<line class="path" x1="1270.1" y1="1265" x2="965" y2="1265"/>
				<g>
					<polygon class="st9" points="1285,1255.1 1268.3,1265.1 1285,1275 					"/>
				</g>
			</g>
		</g>
		<g id="label_11_">
			<path id="shape_18_" class="label_bg_x0020_12" d="M1156,1286h-60c-11.6,0-21-9.4-21-21l0,0c0-11.6,9.4-21,21-21h60
				c11.6,0,21,9.4,21,21l0,0C1177,1276.6,1167.6,1286,1156,1286z"/>
			<g>
				<text transform="matrix(1 0 0 1 1090.2554 1273.499)" class="label_text st10 st11 st7">10.5%</text>
			</g>
		</g>
	</g>
	<g id="path_5_">
		<g id="line_8_">
			<g>
				<polyline class="path" points="505,1087.9 505,1264 667,1264 				"/>
				<g>
					<polygon class="st9" points="495.1,1073 505.1,1089.7 515,1073 					"/>
				</g>
			</g>
		</g>
		<g id="label_5_">
			<path id="shape_9_" class="label_bg_x0020_10" d="M534,1189h-60c-11.5,0-21-9.4-21-21l0,0c0-11.6,9.4-21,21-21h60
				c11.5,0,21,9.4,21,21l0,0C555,1179.6,545.5,1189,534,1189z"/>
			<g>
				<text transform="matrix(1 0 0 1 459.5713 1176.499)" class="label_text st10 st11 st7">19.76%</text>
			</g>
		</g>
	</g>
</g>
<g id="tier3_1_">
	<g id="node_4_">
		<rect id="shape_3_" x="1285" y="1211.4" class="st12" width="298" height="117.6"/>
		<text transform="matrix(1 0 0 1 1367.1406 1264.3818)"><tspan x="0" y="0" class="st5 st6 st7">IMAGEM</tspan><tspan x="21.7" y="38.4" class="st8 st6 st7">10.5%</tspan></text>
	</g>
	<g id="path_1_">
		<g id="line_1_">
			<g>
				<polyline class="st13" points="1288.7,758 1434,758 1434,1211 				"/>
				<g>
					<polygon class="st9" points="1274,767.8 1290.5,757.9 1274,748.1 					"/>
				</g>
			</g>
		</g>
		<g id="label_1_">
			<path id="shape_1_" class="label_bg_x0020_6" d="M1464,779h-60c-11.6,0-21-9.5-21-21l0,0c0-11.5,9.4-21,21-21h60
				c11.6,0,21,9.5,21,21l0,0C1485,769.5,1475.6,779,1464,779z"/>
			<g>
				<text transform="matrix(1 0 0 1 1409.8755 766.499)" class="label_text st10 st11 st7">21%</text>
			</g>
		</g>
	</g>
</g>
<g id="tier2_1_">
	<g id="node_3_">
		<rect id="shape_8_" x="49" y="955.4" class="st4" width="298" height="117.6"/>
		<text transform="matrix(1 0 0 1 165.5879 1008.3818)"><tspan x="0" y="0" class="st5 st6 st7">RCA</tspan><tspan x="-22.4" y="38.4" class="st8 st6 st7">23.25%</tspan></text>
	</g>
	<g id="path_3_">
		<g id="line_3_">
			<g>
				<polyline class="st13" points="343.3,758 198,758 198,955 				"/>
				<g>
					<polygon class="st9" points="358,748.2 341.5,758.1 358,767.9 					"/>
				</g>
			</g>
		</g>
		<g id="label_4_">
			<path id="shape_6_" class="label_bg_x0020_9" d="M228,779h-60c-11.5,0-21-9.5-21-21l0,0c0-11.5,9.4-21,21-21h60
				c11.5,0,21,9.5,21,21l0,0C249,769.5,239.6,779,228,779z"/>
			<g>
				<text transform="matrix(1 0 0 1 152.5713 766.499)" class="label_text st10 st11 st7">23.25%</text>
			</g>
		</g>
	</g>
	<g id="node_5_">
		<rect id="shape_11_" x="358" y="955.4" class="st4" width="298" height="117.6"/>
		<text transform="matrix(1 0 0 1 443.0156 1008.3818)"><tspan x="0" y="0" class="st5 st6 st7">KOBALT</tspan><tspan x="18.8" y="38.4" class="st8 st6 st7">3.49%</tspan></text>
	</g>
	<g id="path_6_">
		<g id="line_4_">
			<g>
				<line class="st13" x1="507" y1="831.7" x2="507" y2="955"/>
				<g>
					<polygon class="st9" points="497.2,817 507.1,833.5 516.9,817 					"/>
				</g>
			</g>
		</g>
		<g id="label_6_">
			<path id="shape_10_" class="label_bg_x0020_11" d="M537,907h-60c-11.5,0-21-9.5-21-21l0,0c0-11.5,9.4-21,21-21h60
				c11.5,0,21,9.5,21,21l0,0C558,897.5,548.5,907,537,907z"/>
			<g>
				<text transform="matrix(1 0 0 1 461.5713 894.499)" class="label_text st10 st11 st7">23.25%</text>
			</g>
		</g>
	</g>
</g>
<g id="tier1">
	<g id="node_2_">
		<rect id="shape_7_" x="976" y="699.4" class="st12" width="298" height="117.6"/>
		<text transform="matrix(1 0 0 1 1070.4355 752.3818)"><tspan x="0" y="0" class="st5 st6 st7">ASCAP</tspan><tspan x="33.3" y="38.4" class="st8 st6 st7">8%</tspan></text>
	</g>
	<g id="path_2_">
		<g id="line_2_">
			<g>
				<polyline class="st13" points="815,365.7 815,503 1125,503 1125,699 				"/>
				<g>
					<polygon class="st9" points="805.2,351 815.1,367.5 824.9,351 					"/>
				</g>
			</g>
		</g>
		<g id="label_2_">
			<path id="shape_2_" class="label_bg" d="M1165,525h-79c-11.6,0-21-9.5-21-21v0c0-11.5,9.4-21,21-21h79c11.6,0,21,9.4,21,21v0
				C1186,515.5,1176.6,525,1165,525z"/>
			<g id="info_1_">
				<circle class="st4" cx="1165" cy="504" r="14"/>
				<g>
					<text transform="matrix(1 0 0 1 1162.5771 512.1191)" class="st14 st5 st15">i</text>
					<text transform="matrix(1 0 0 1 1162.5771 512.1191)" class="label_info st5 st15">i</text>
				</g>
			</g>
			<g>
				<text transform="matrix(1 0 0 1 1091.8755 512.499)" class="label_text st10 st11 st7">50%</text>
			</g>
		</g>
	</g>
	<g id="node_1_">
		<rect id="shape_5_" x="354" y="699.4" class="st4" width="298" height="117.6"/>
		<text transform="matrix(1 0 0 1 352.9766 752.3818)"><tspan x="0" y="0" class="st5 st6 st7">SOUND EXCHANGE</tspan><tspan x="114.5" y="38.4" class="st8 st6 st7">3.5%</tspan></text>
	</g>
	<g id="path_4_">
		<polyline id="line_5_" class="st13" points="815,503 505,503 505,699 		"/>
		<g id="label_3_">
			<path id="shape_4_" class="label_bg_x0020_8" d="M542,525h-79c-11.5,0-21-9.5-21-21v0c0-11.5,9.4-21,21-21h79
				c11.5,0,21,9.4,21,21v0C563,515.5,553.5,525,542,525z"/>
			<g id="info_2_">
				<circle class="st4" cx="542" cy="504" r="14"/>
				<g>
					<text transform="matrix(1 0 0 1 539.5771 512.1191)" class="st14 st5 st15">i</text>
					<text transform="matrix(1 0 0 1 539.5771 512.1191)" class="label_info st5 st15">i</text>
				</g>
			</g>
			<g>
				<text transform="matrix(1 0 0 1 468.8755 512.499)" class="label_text st10 st11 st7">50%</text>
			</g>
		</g>
	</g>
</g>
<g id="start">
	<g>
		<circle cx="816.1" cy="288.9" r="61.8"/>
		<g>
			<polyline class="st16" points="843.3,295.9 843.3,311.9 789,311.9 789,295.9 			"/>
			<line class="st16" x1="816.1" y1="257.6" x2="816.1" y2="299.8"/>
			<polyline class="st16" points="833.5,282.6 816.1,299.9 798.8,282.6 			"/>
		</g>
	</g>
</g>
<g id="title">
	<text transform="matrix(1 0 0 1 343.4556 299.4863)" class="st8 st17 st7">Recording</text>
	<text transform="matrix(1 0 0 1 1120.4526 299.8926)" class="st8 st17 st7">Publishing</text>
	<text transform="matrix(1 0 0 1 697.6587 94.8496)" class="st5 st18 st19">USA RADIO</text>
</g>
</svg>
